<svg width="70" height="70" viewBox="0 0 70 70" fill="none" xmlns="http://www.w3.org/2000/svg">
<rect width="70" height="70" fill="#542E5F"/>
<path fill-rule="evenodd" clip-rule="evenodd" d="M35 63C50.464 63 63 50.464 63 35C63 19.536 50.464 7 35 7C19.536 7 7 19.536 7 35C7 50.464 19.536 63 35 63Z" fill="#542E5F"/>
<mask id="mask0" mask-type="alpha" maskUnits="userSpaceOnUse" x="7" y="7" width="56" height="56">
<path fill-rule="evenodd" clip-rule="evenodd" d="M35 63C50.464 63 63 50.464 63 35C63 19.536 50.464 7 35 7C19.536 7 7 19.536 7 35C7 50.464 19.536 63 35 63Z" fill="white"/>
</mask>
<g mask="url(#mask0)">
<path fill-rule="evenodd" clip-rule="evenodd" d="M12.3221 34.6194C12.2928 34.1448 12.0251 33.8825 11.5738 33.8825C11.0081 33.8825 10.6382 34.3297 10.6382 34.9972C10.6382 35.671 11.0081 36.1053 11.5909 36.1053C12.0628 36.1053 12.3221 35.8226 12.3455 35.2703H11.9881C11.9591 35.594 11.8244 35.7515 11.5738 35.7515C11.2569 35.7515 11.0577 35.4642 11.0577 34.9955C11.0577 34.5278 11.2569 34.2381 11.5791 34.2381C11.7899 34.2381 11.9298 34.3772 11.9682 34.6194H12.3221Z" fill="#FFFFFE"/>
<path fill-rule="evenodd" clip-rule="evenodd" d="M16.5966 34.2381C16.9298 34.2381 17.1344 34.5191 17.1344 34.9899C17.1344 35.4642 16.9298 35.7515 16.5966 35.7515C16.2619 35.7515 16.0619 35.4642 16.0619 34.9899C16.0619 34.5191 16.2619 34.2381 16.5966 34.2381ZM16.5966 33.8825C16.0148 33.8825 15.6389 34.3197 15.6389 34.9899C15.6389 35.6647 16.0148 36.1053 16.5966 36.1053C17.1748 36.1053 17.5531 35.6647 17.5531 34.9899C17.5531 34.3197 17.1748 33.8825 16.5966 33.8825Z" fill="#FFFFFE"/>
<path fill-rule="evenodd" clip-rule="evenodd" d="M21.0127 33.9249V36.063H22.3504V35.7099H21.4325V33.9249H21.0127Z" fill="#FFFFFE"/>
<path fill-rule="evenodd" clip-rule="evenodd" d="M25.7419 33.9249V36.063H27.0782V35.7099H26.1551V33.9249H25.7419Z" fill="#FFFFFE"/>
<path fill-rule="evenodd" clip-rule="evenodd" d="M30.8805 34.7804V34.2753H31.807V33.9249H30.4714V36.063H31.8423V35.7099H30.8805V35.1294H31.7261V34.7804H30.8805Z" fill="#FFFFFE"/>
<path fill-rule="evenodd" clip-rule="evenodd" d="M36.8127 34.6194C36.7883 34.1448 36.5164 33.8825 36.0662 33.8825C35.504 33.8825 35.1326 34.3297 35.1326 34.9972C35.1326 35.671 35.504 36.1053 36.0868 36.1053C36.5593 36.1053 36.8127 35.8226 36.8413 35.2703H36.4787C36.4494 35.594 36.3168 35.7515 36.0732 35.7515C35.7507 35.7515 35.5532 35.4642 35.5532 34.9955C35.5532 34.5278 35.7507 34.2381 36.0732 34.2381C36.2819 34.2381 36.4256 34.3772 36.4592 34.6194H36.8127Z" fill="#FFFFFE"/>
<path fill-rule="evenodd" clip-rule="evenodd" d="M40.0552 33.9249V34.2753H40.6157V36.063H41.0233V34.2753H41.582V33.9249H40.0552Z" fill="#FFFFFE"/>
<path fill-rule="evenodd" clip-rule="evenodd" d="M44.9645 36.063H45.3686V33.9249H44.9645V36.063Z" fill="#FFFFFE"/>
<path fill-rule="evenodd" clip-rule="evenodd" d="M49.789 34.2381C50.1236 34.2381 50.324 34.5191 50.324 34.9899C50.324 35.4642 50.1236 35.7515 49.789 35.7515C49.4578 35.7515 49.2539 35.4642 49.2539 34.9899C49.2539 34.5191 49.4578 34.2381 49.789 34.2381ZM49.789 33.8825C49.2117 33.8825 48.8292 34.3197 48.8292 34.9899C48.8292 35.6647 49.2117 36.1053 49.789 36.1053C50.3669 36.1053 50.7452 35.6647 50.7452 34.9899C50.7452 34.3197 50.3669 33.8825 49.789 33.8825Z" fill="#FFFFFE"/>
<path fill-rule="evenodd" clip-rule="evenodd" d="M54.2058 33.9249V36.063H54.5932V34.5546L55.4772 36.063H55.8894V33.9249H55.4995V35.433L54.64 33.9249H54.2058Z" fill="#FFFFFE"/>
<path fill-rule="evenodd" clip-rule="evenodd" d="M10.3059 22.1431V32.8559H17.9674V30.6553H13.1195V22.1431H10.3059Z" fill="#FFFFFE"/>
<path fill-rule="evenodd" clip-rule="evenodd" d="M28.0341 28.5955H26.0103L27.0301 24.9686L28.0341 28.5955ZM25.6788 22.1431L21.7121 32.8559H24.6237L25.3256 30.7316H28.7345L29.4196 32.8559H32.3533L28.3681 22.1431H25.6788Z" fill="#FFFFFE"/>
<path fill-rule="evenodd" clip-rule="evenodd" d="M39.5857 30.6553V24.3434H40.4303C42.5267 24.3434 43.4212 25.2919 43.4212 27.4895C43.4212 29.7067 42.5267 30.6553 40.4303 30.6553H39.5857ZM36.7624 22.1431V32.8559H39.822C41.5275 32.8559 42.6583 32.6776 43.5001 32.2918C45.2855 31.4567 46.3377 29.6741 46.3377 27.4895C46.3377 25.6122 45.5682 24.0572 44.1677 23.0913C43.1654 22.3985 41.976 22.1431 39.822 22.1431H36.7624Z" fill="#FFFFFE"/>
<path fill-rule="evenodd" clip-rule="evenodd" d="M49.1401 22.1431L52.9641 28.6326V32.8559H55.7811V28.6326L59.605 22.1431H56.469L54.4267 26.3015L52.3261 22.1431H49.1401Z" fill="#FFFFFE"/>
<path fill-rule="evenodd" clip-rule="evenodd" d="M13.3457 46.4826L12.7719 44.902H12.7615L12.2198 46.4826H13.3457ZM13.2504 44.12L14.8003 47.9953H13.909L13.5806 47.1248H11.9727L11.6419 47.9953H10.7966L12.351 44.12H13.2504Z" fill="#FFFFFE"/>
<path fill-rule="evenodd" clip-rule="evenodd" d="M17.1769 44.12V45.7745H17.194L18.6012 44.12H19.5445L17.9178 45.8741L19.6433 47.9953H18.6417L17.194 46.0681H17.1769V47.9953H16.3861V44.12H17.1769Z" fill="#FFFFFE"/>
<path fill-rule="evenodd" clip-rule="evenodd" d="M24.0814 47.8735C23.7356 47.9887 23.3862 48.038 23.0728 48.038C22.1047 48.038 21.0466 47.4891 21.0466 46.0795C21.0466 44.7445 21.9941 44.0763 23.2166 44.0763C23.5223 44.0763 23.7865 44.1148 24.0814 44.2092L24.0479 44.8715C23.819 44.7834 23.5691 44.7278 23.2724 44.7278C22.3982 44.7278 21.8824 45.2753 21.8824 46.0681C21.8824 47.001 22.5155 47.3857 23.2166 47.3857C23.5635 47.3857 23.8361 47.3007 24.0301 47.2133L24.0814 47.8735Z" fill="#FFFFFE"/>
<path fill-rule="evenodd" clip-rule="evenodd" d="M28.1346 44.12V44.8052H26.5966V45.6816H27.994V46.3151H26.5966V47.3073H28.1346V47.9953H25.8058V44.12H28.1346Z" fill="#FFFFFE"/>
<path fill-rule="evenodd" clip-rule="evenodd" d="M32.81 47.8735C32.4652 47.9887 32.1159 48.038 31.8035 48.038C30.833 48.038 29.7762 47.4891 29.7762 46.0795C29.7762 44.7445 30.7231 44.0763 31.9473 44.0763C32.2537 44.0763 32.5165 44.1148 32.81 44.2092L32.7765 44.8715C32.5507 44.7834 32.2977 44.7278 32.0046 44.7278C31.1293 44.7278 30.611 45.2753 30.611 46.0681C30.611 47.001 31.2479 47.3857 31.9473 47.3857C32.2942 47.3857 32.5657 47.3007 32.7608 47.2133L32.81 47.8735Z" fill="#FFFFFE"/>
<path fill-rule="evenodd" clip-rule="evenodd" d="M37.4318 47.8735C37.0866 47.9887 36.7359 48.038 36.4256 48.038C35.4582 48.038 34.3976 47.4891 34.3976 46.0795C34.3976 44.7445 35.3452 44.0763 36.5687 44.0763C36.8769 44.0763 37.1393 44.1148 37.4318 44.2092L37.4004 44.8715C37.1721 44.7834 36.9226 44.7278 36.6267 44.7278C35.7507 44.7278 35.2349 45.2753 35.2349 46.0681C35.2349 47.001 35.8673 47.3857 36.5687 47.3857C36.9167 47.3857 37.1878 47.3007 37.384 47.2133L37.4318 47.8735Z" fill="#FFFFFE"/>
<path fill-rule="evenodd" clip-rule="evenodd" d="M39.7096 44.12L40.4841 45.7697L40.6537 46.1794H40.6673L40.8379 45.7628L41.5761 44.12H42.3564L40.7968 47.4197C40.5786 47.8787 40.2823 48.038 39.8726 48.038C39.6873 48.038 39.488 48.0061 39.2818 47.9159L39.3701 47.3295C39.4828 47.3857 39.5767 47.4128 39.7041 47.4128C39.8548 47.4128 40.0328 47.4076 40.1438 47.1519L40.2551 46.8927L38.825 44.12H39.7096Z" fill="#FFFFFE"/>
<path fill-rule="evenodd" clip-rule="evenodd" d="M46.158 46.4826L45.5853 44.902H45.5731L45.0332 46.4826H46.158ZM46.0624 44.12L47.6098 47.9953H46.7209L46.3932 47.1248H44.7823L44.4546 47.9953H43.6079L45.1606 44.12H46.0624Z" fill="#FFFFFE"/>
<path fill-rule="evenodd" clip-rule="evenodd" d="M50.3512 45.9303C50.8272 45.9303 51.0132 45.6014 51.0132 45.3083C51.0132 44.9884 50.8073 44.7278 50.3512 44.7278H49.9886V45.9303H50.3512ZM50.3512 44.12C51.7657 44.12 51.8466 45.0866 51.8466 45.3325C51.8466 45.8422 51.4924 46.5368 50.4943 46.5368H49.9886V47.9953H49.1981V44.12H50.3512Z" fill="#FFFFFE"/>
<path fill-rule="evenodd" clip-rule="evenodd" d="M56.9053 47.9953H57.6943V44.12H56.9053V47.9953ZM54.366 47.3857H54.8874C55.2605 47.3857 55.5404 47.1581 55.5404 46.7828C55.5404 46.5336 55.4165 46.1794 54.8263 46.1794H54.366V47.3857ZM54.366 45.5699H54.9101C56.2523 45.5699 56.3483 46.4993 56.3483 46.7432C56.3483 47.3417 56.0066 47.9953 54.8874 47.9953H53.5734V44.12H54.366V45.5699Z" fill="#FFFFFE"/>
<path d="M11 41H59" stroke="white" stroke-width="0.5" stroke-linecap="square"/>
</g>
</svg>
