<svg width="70" height="70" viewBox="0 0 70 70" fill="none" xmlns="http://www.w3.org/2000/svg">
<rect width="70" height="70" fill="#003B46"/>
<path fill-rule="evenodd" clip-rule="evenodd" d="M35 63C50.464 63 63 50.464 63 35C63 19.536 50.464 7 35 7C19.536 7 7 19.536 7 35C7 50.464 19.536 63 35 63Z" fill="#003B46"/>
<mask id="mask0" mask-type="alpha" maskUnits="userSpaceOnUse" x="7" y="7" width="56" height="56">
<path fill-rule="evenodd" clip-rule="evenodd" d="M35 63C50.464 63 63 50.464 63 35C63 19.536 50.464 7 35 7C19.536 7 7 19.536 7 35C7 50.464 19.536 63 35 63Z" fill="white"/>
</mask>
<g mask="url(#mask0)">
<mask id="mask1" mask-type="alpha" maskUnits="userSpaceOnUse" x="9" y="25" width="51" height="21">
<path fill-rule="evenodd" clip-rule="evenodd" d="M9.00708 25.0741H59.9047V45.1556H9.00708V25.0741Z" fill="white"/>
</mask>
<g mask="url(#mask1)">
<path fill-rule="evenodd" clip-rule="evenodd" d="M18.4999 45.1628H26.1311V42.1378H22.1974V41.2132H26.1311V39.4452H22.1974V38.5186H26.1311V35.4942H18.4999V45.1628ZM32.578 41.5842L32.039 39.1811L31.5009 41.5842H32.578ZM34.0258 35.4979L37.4893 44.7919V45.1609H33.8586L33.4623 44.0536H30.6138L30.2158 45.1609H26.5874V44.7919L30.0503 35.4979H34.0258ZM35.8932 38.5186H37.9201V45.1628H41.6339V38.5186H43.6625V35.4942H35.8932V38.5186ZM44.0497 35.0328H51.6791V32.0079H47.7472V31.0814H51.6791V29.3133H47.7472V28.3887H51.6791V25.362H44.0497V35.0328ZM43.5934 32.0079H39.6615V31.0814H43.5934V29.3133H39.6615V28.3887H43.5934V25.362H35.9623V35.0328H43.5934V32.0079ZM14.3208 41.9035C14.3208 41.599 14.1298 41.2944 13.6409 41.2944H12.7138V42.5088H13.6409C14.1154 42.5088 14.3208 42.2061 14.3208 41.9035ZM12.7138 39.087H13.41C14.0463 39.087 14.088 38.0775 13.41 38.0775H12.7138V39.087ZM18.0036 42.3593C17.9382 44.0148 16.6585 45.1628 14.986 45.1628H9V35.4942H15.0133C16.4276 35.4942 17.5546 36.7099 17.5183 38.1458C17.502 38.921 17.0947 39.637 16.3458 39.8991C17.4765 40.3439 18.0745 41.0896 18.0036 42.3593ZM52.1354 25.362V28.3887H54.164V35.0328H57.876V28.3887H59.9047V25.362H52.1354ZM30.2594 29.5625H30.7775C31.3882 29.5496 31.6754 29.3982 31.6754 28.9276C31.6754 28.4718 31.3882 28.2651 30.7775 28.2651H30.2594V29.5625ZM30.3012 35.0328H26.5874V25.362H30.6956C33.0642 25.3786 35.3623 26.0411 35.3623 28.9276C35.3623 30.3359 34.8056 31.2198 33.9613 31.7458L35.5114 34.7302V35.0328H31.77L30.5593 32.4647H30.3012V35.0328ZM18.3636 28.3887H20.3923V35.0328H24.1042V28.3887H26.1311V25.362H18.3636V28.3887ZM18.0618 31.9784C18.0618 34.5345 15.6241 35.2948 13.4882 35.2948C11.1086 35.2948 9.01457 34.1765 9 31.7292H12.7011C12.7011 32.1999 13.121 32.3253 13.5445 32.3253C13.9499 32.3253 14.3062 32.2146 14.3062 31.8556C14.3062 31.5382 14.0744 31.3859 13.3946 31.3176C11.3123 31.1387 9.05453 30.7769 9.05453 28.2107C9.05453 26.234 11.1359 25.0741 13.4882 25.0741C15.9513 25.0741 17.8564 26.1362 17.911 28.361H14.3062C14.2907 28.0565 13.9244 27.9052 13.5573 27.9052C13.2301 27.9052 12.8101 28.0446 12.8101 28.4459C12.8101 28.7763 13.0682 28.9276 13.3946 28.9543C15.3951 29.1214 18.0618 29.3567 18.0618 31.9784Z" fill="#FFFFFE"/>
</g>
</g>
</svg>
