<svg width="24" height="24" viewBox="0 0 24 24" fill="none" xmlns="http://www.w3.org/2000/svg">
<path d="M19.5 5.5H8.9881" stroke="white" stroke-width="2" stroke-linecap="round"/>
<path d="M19.5 11.5H8.9881" stroke="white" stroke-width="2" stroke-linecap="round"/>
<path d="M19.5 17.5H8.9881" stroke="white" stroke-width="2" stroke-linecap="round"/>
<path fill-rule="evenodd" clip-rule="evenodd" d="M4.5 7C5.32843 7 6 6.32843 6 5.5C6 4.67157 5.32843 4 4.5 4C3.67157 4 3 4.67157 3 5.5C3 6.32843 3.67157 7 4.5 7Z" fill="white"/>
<path fill-rule="evenodd" clip-rule="evenodd" d="M4.5 13C5.32843 13 6 12.3284 6 11.5C6 10.6716 5.32843 10 4.5 10C3.67157 10 3 10.6716 3 11.5C3 12.3284 3.67157 13 4.5 13Z" fill="white"/>
<path fill-rule="evenodd" clip-rule="evenodd" d="M4.5 19C5.32843 19 6 18.3284 6 17.5C6 16.6716 5.32843 16 4.5 16C3.67157 16 3 16.6716 3 17.5C3 18.3284 3.67157 19 4.5 19Z" fill="white"/>
</svg>
