<svg width="16" height="16" viewBox="0 0 16 16" fill="none" xmlns="http://www.w3.org/2000/svg">
<path fill-rule="evenodd" clip-rule="evenodd" d="M7.30077 14.324C7.67746 14.7473 8.32254 14.7473 8.69923 14.324C10.0748 12.7784 13 9.23868 13 7.08894C13 4.2784 10.7614 2 8 2C5.23858 2 3 4.2784 3 7.08894C3 9.23868 5.92522 12.7784 7.30077 14.324Z" stroke="black"/>
<path fill-rule="evenodd" clip-rule="evenodd" d="M8 9C9.10457 9 10 8.10457 10 7C10 5.89543 9.10457 5 8 5C6.89543 5 6 5.89543 6 7C6 8.10457 6.89543 9 8 9Z" stroke="black"/>
</svg>
