<svg width="24" height="25" viewBox="0 0 24 25" fill="none" xmlns="http://www.w3.org/2000/svg">
<path d="M9.14254 1.95275C10.678 1.07683 12.562 1.07683 14.0975 1.95275L19.7175 5.15863C21.2772 6.04834 22.24 7.70608 22.24 9.50169V15.7889C22.24 17.5845 21.2772 19.2422 19.7175 20.132L14.0975 23.3378C12.562 24.2138 10.678 24.2138 9.14254 23.3378L3.52254 20.132C1.96285 19.2422 1 17.5845 1 15.7889V9.50169C1 7.70608 1.96285 6.04834 3.52254 5.15863L9.14254 1.95275Z" fill="url(#paint0_linear)" stroke="#5698C4" stroke-width="2"/>
<path d="M9.78869 11.4206C10.0332 11.4206 10.2317 11.2165 10.2317 10.9649V9.18777C10.2317 8.39328 10.8602 7.74667 11.6328 7.74667C12.4052 7.74667 13.0339 8.39328 13.0339 9.18777V10.9649C13.0339 11.2165 13.2324 11.4206 13.4769 11.4206C13.7215 11.4206 13.9199 11.2165 13.9199 10.9649V9.18777C13.9199 7.89066 12.8939 6.83529 11.6328 6.83529C10.3719 6.83529 9.34589 7.89066 9.34589 9.18777V10.9649C9.34566 11.2165 9.54414 11.4206 9.78869 11.4206Z" fill="white"/>
<path d="M16.1832 10.3967L14.363 10.3967V10.965C14.363 11.4676 13.9656 11.8763 13.4769 11.8763C12.9885 11.8763 12.5909 11.4676 12.5909 10.965V10.3967H10.675V10.965C10.675 11.4676 10.2776 11.8763 9.78893 11.8763C9.30027 11.8763 8.90287 11.4676 8.90287 10.965V10.3967L7.05677 10.3967C6.9345 10.3967 6.85896 10.4958 6.88798 10.6179L7.90628 17.111C7.99998 17.476 8.37323 17.7718 8.74028 17.7718H14.4996C14.8669 17.7718 15.2399 17.4758 15.3341 17.111L16.3522 10.6179C16.381 10.4956 16.3057 10.3967 16.1832 10.3967Z" fill="white"/>
<defs>
<linearGradient id="paint0_linear" x1="0" y1="24.8444" x2="22.957" y2="24.8444" gradientUnits="userSpaceOnUse">
<stop stop-color="#5698C4"/>
<stop offset="1" stop-color="#AAD2BF"/>
</linearGradient>
</defs>
</svg>
