<svg width="24" height="24" viewBox="0 0 24 24" fill="none" xmlns="http://www.w3.org/2000/svg">
<rect x="4" y="9" width="16" height="12" rx="2" stroke="white" stroke-width="2" stroke-linecap="round"/>
<path fill-rule="evenodd" clip-rule="evenodd" d="M9.5 9C10.1904 9 12 9 12 9C12 9 12 7.19036 12 6.5C12 5.11929 10.8807 4 9.5 4C8.11929 4 7 5.11929 7 6.5C7 7.88071 8.11929 9 9.5 9Z" stroke="white" stroke-width="2" stroke-linecap="round"/>
<path fill-rule="evenodd" clip-rule="evenodd" d="M15 9C14.1716 9 12 9 12 9C12 9 12 6.82843 12 6C12 4.34315 13.3431 3 15 3C16.6569 3 18 4.34315 18 6C18 7.65685 16.6569 9 15 9Z" stroke="white" stroke-width="2" stroke-linecap="round"/>
<path d="M12 9.5V20.5" stroke="white" stroke-width="2" stroke-linecap="round"/>
</svg>
