<svg width="24" height="24" viewBox="0 0 24 24" fill="none" xmlns="http://www.w3.org/2000/svg">
<path fill-rule="evenodd" clip-rule="evenodd" d="M12.2308 17.8517C12.0861 17.7764 11.9139 17.7764 11.7692 17.8517L7.17907 20.2398C6.81196 20.4308 6.38498 20.1186 6.45565 19.7108L7.37501 14.4062L3.48536 10.6542C3.18598 10.3654 3.34959 9.8586 3.76132 9.79939L9.1416 9.02571L11.5526 4.19132C11.7367 3.82218 12.2634 3.82218 12.4475 4.19132L14.8584 9.02571L20.2387 9.79939C20.6504 9.8586 20.814 10.3654 20.5147 10.6542L16.625 14.4062L17.5444 19.7108C17.615 20.1186 17.1881 20.4308 16.8209 20.2398L12.2308 17.8517Z" stroke="white" stroke-width="2" stroke-linecap="round"/>
</svg>
